<?xml version="1.0" encoding="utf-8"?>
<!-- Generator: Adobe Illustrator 22.0.1, SVG Export Plug-In . SVG Version: 6.00 Build 0)  -->
<svg version="1.1" id="Layer_1" xmlns="http://www.w3.org/2000/svg" xmlns:xlink="http://www.w3.org/1999/xlink" x="0px" y="0px"
	 viewBox="0 0 37.2 16.3" style="enable-background:new 0 0 37.2 16.3;" xml:space="preserve">
<style type="text/css">
	.st0{fill:#FFFFFF;}
</style>
<title>hgtv</title>
<g>
	<g>
		<rect x="0.1" width="35.2" height="16.2"/>
		<g>
			<path class="st0" d="M19.2,3.8L17.6,10C17.5,9.3,16,3.8,16,3.8h-3.1v8.6h2V6.1l1.7,6.3h1.9l1.7-6.3v6.3h2l0-8.6H19.2z"/>
			<path class="st0" d="M8.1,3.6c-3.3,0-3.8,2.2-3.8,2.8h2c0.1-0.5,0.5-1.1,1.9-1.1c1.6,0,1.7,1.3,1.7,1.6c0,0,0,0.2,0,0.2v0
				c0,0-0.6,0-0.6,0c-2.9,0-5.3,0.6-5.3,2.9c0,1.2,1.2,2.6,3.1,2.6c1.2,0,2.4-0.5,2.8-0.9l0.1,0.7h1.9V7.7
				C11.8,5.1,10.8,3.6,8.1,3.6z M9.8,9.1c0,0.3-0.1,0.5-0.2,0.8c-0.2,0.5-1.1,1-2.1,1c-0.9,0-1.6-0.3-1.6-1c0-0.9,1-1.1,1.8-1.2
				c0.8-0.1,1.2-0.1,1.5-0.1c0.1,0,0.6,0,0.6,0V9.1z"/>
			<path class="st0" d="M29.5,9.1c-0.3,1-1.1,1.7-2.1,1.7c-1.3,0-2.3-1.2-2.3-2.7c0-1.5,1-2.7,2.3-2.7c1,0,1.8,0.7,2.1,1.7h1.9
				c-0.4-2-2-3.5-4-3.5c-2.4,0-4.1,1.8-4.1,4.5c0,2.6,1.7,4.5,4.1,4.5c2,0,3.6-1.4,4-3.5H29.5z"/>
		</g>
	</g>
	<g>
		<g>
			<g>
				<path d="M36.5,0c-0.4,0-0.7,0.3-0.7,0.7c0,0.4,0.3,0.7,0.7,0.7c0.4,0,0.7-0.3,0.7-0.7C37.2,0.3,36.9,0,36.5,0z M36.5,1.3
					c-0.3,0-0.6-0.3-0.6-0.6c0-0.3,0.3-0.6,0.6-0.6c0.3,0,0.6,0.3,0.6,0.6C37.1,1,36.8,1.3,36.5,1.3z M36.8,0.5
					c0-0.2-0.1-0.2-0.3-0.2h-0.3v0.8h0.1V0.8h0.1l0.2,0.3h0.2l-0.2-0.3C36.7,0.7,36.8,0.7,36.8,0.5z M36.5,0.7h-0.1V0.4h0.1
					c0.1,0,0.2,0,0.2,0.1C36.7,0.6,36.6,0.7,36.5,0.7z"/>
			</g>
		</g>
	</g>
</g>
</svg>
