<svg xmlns="http://www.w3.org/2000/svg" viewBox="0 0 101 35.28">
  <title>cinemax</title>
  <g id="e15c5235-d2cb-44e2-bada-e46c0ebf05bb" data-name="Layer 2">
    <g id="d046d17e-c219-45df-925d-4d957cb447a1" data-name="Static items">
      <g id="48075a75-04cb-416f-8dcd-3ba3ff60d803" data-name="boxes">
        <g>
          <polygon points="92.32 22.49 3.4 31 3.4 14.49 92.32 5.97 92.32 22.49" fill="#fff"/>
          <path d="M71.29,13.73,72,16.58l-2.18.27ZM96.79.42,93.57,23.33,0,35.28,3.22,12.37ZM85.66,13.21l4.43-6.45-4.61.57-2.06,3.19L81.69,7.79l-4.31.53,3.49,5.31-4,5.82-3-10.68L70,9.25,63.62,21.33,65.24,9.81l-4.38.54L57.7,15l-1.95-4-3.93.48L50.09,23.76l3.9-.48.86-6.1,2.12,4H57l3.36-4.72-.86,6.1,3.64-.45.32,0,4-.49.84-1.73,4.17-.51.4,1.58,3.18-.39,1.05-.13L80.73,20l2.42-3.72L85,19.48l4.31-.53ZM43.68,17l.18-1.25L50.1,15l.48-3.38L40.42,12.85,38.69,25.16l10.16-1.25.47-3.37-6.24.77.2-1.34,5.82-.72.41-3ZM25.52,26.78l3.95-.48.87-6.12,3.55,5.58,3.54-.43L39.18,13l-3.95.48-.83,5.88L31,14l-3.73.46ZM26,14.62l-4,.49L20.32,27.42l4-.49ZM9.13,26.67c-.11,1.1,1,2,2.5,1.82h0l7.43-.91.51-3.44-5,.62c-.67.08-1.27-.13-1.15-1l.44-3.12c.13-1,1-1.26,1.85-1.36l4.68-.57.49-3.45-8.22,1a2.61,2.61,0,0,0-2.3,1.95L9.13,26.67Z" fill="#231f20"/>
          <path d="M101,1.13a1.66,1.66,0,0,1-.33,1.23A1.59,1.59,0,0,1,99.58,3a1.25,1.25,0,0,1-1.45-1.12A1.66,1.66,0,0,1,98.46.63,1.59,1.59,0,0,1,99.53,0,1.25,1.25,0,0,1,101,1.13Zm-.48,1.15a1.48,1.48,0,0,0,.31-1.12,1.09,1.09,0,0,0-1.29-1A1.38,1.38,0,0,0,98.6.7a1.48,1.48,0,0,0-.31,1.12,1.09,1.09,0,0,0,1.29,1A1.4,1.4,0,0,0,100.51,2.29Zm-1.24,0-.48.06L99,.75l.62-.08c.46-.06.67.13.7.41a.56.56,0,0,1-.38.6l.28.48-.49.06-.24-.42-.18,0Zm.34-.86a.34.34,0,0,0,.24-.11.17.17,0,0,0,0-.12c0-.11-.09-.13-.22-.12l-.22,0-.05.35Z" fill="#231f20"/>
        </g>
      </g>
    </g>
  </g>
</svg>
