<svg xmlns="http://www.w3.org/2000/svg" viewBox="0 0 37.23 19">
  <title>hgtv</title>
  <g id="c6427830-a85f-43db-b8e8-fb07751c30d8" data-name="Layer 2">
    <g id="edd352b7-b16a-4272-a8f7-6cf9d3e4a991" data-name="Layer 1">
      <g>
        <g>
          <polygon points="25.76 8.36 12.88 0 0 8.36 25.76 8.36" fill="#59c9e6"/>
          <polygon points="0 9.03 3.27 9.03 3.27 12.47 6.34 12.47 6.34 9.03 9.6 9.03 9.6 18.8 6.34 18.8 6.34 15.29 3.27 15.29 3.27 18.8 0 18.8 0 9.03" fill="#59c9e6"/>
          <path d="M10,13.94v0a5.12,5.12,0,0,1,5.39-5.09,6.3,6.3,0,0,1,4.18,1.48L17.76,12.5a3.19,3.19,0,0,0-2.16-.76A2,2,0,0,0,13.5,14v0a2.16,2.16,0,0,0,2.24,2.24,2.1,2.1,0,0,0,1.12-.27v-.66H15.18V13h4.73v4.52A7,7,0,0,1,15.51,19c-3,0-5.48-2-5.48-5.06" fill="#59c9e6"/>
          <polygon points="33.63 9.03 31.73 14.52 29.83 9.03 19.93 9.03 19.93 11.77 22.52 11.77 22.52 18.8 25.79 18.8 25.79 11.77 27.29 11.77 30.14 18.8 33.26 18.8 37.23 9.03 33.63 9.03" fill="#59c9e6"/>
        </g>
        <path d="M34.4,18.45h0a.46.46,0,1,1,.92,0h0a.46.46,0,1,1-.92,0Zm.85,0h0a.39.39,0,1,0-.78,0h0a.39.39,0,1,0,.78,0Zm-.57-.24h.21c.1,0,.18.05.18.15a.14.14,0,0,1-.11.14l.12.18H35l-.11-.16h-.1v.16h-.09Zm.2.23c.06,0,.09,0,.09-.08s0-.08-.09-.08h-.11v.15Z" fill="#59c9e6"/>
      </g>
    </g>
  </g>
</svg>
