<?xml version="1.0" encoding="utf-8"?>
<!-- Generator: Adobe Illustrator 22.0.1, SVG Export Plug-In . SVG Version: 6.00 Build 0)  -->
<svg version="1.1" id="Layer_1" xmlns="http://www.w3.org/2000/svg" xmlns:xlink="http://www.w3.org/1999/xlink" x="0px" y="0px"
	 viewBox="0 0 19 19" style="enable-background:new 0 0 19 19;" xml:space="preserve">
<style type="text/css">
	.st0{fill:#EE3649;}
	.st1{fill:#FFFFFF;}
	.st2{fill:none;}
</style>
<title>hgtv</title>
<g>
	<g>
		<path class="st0" d="M9.5,0C4.3,0,0,4.2,0,9.5C0,14.7,4.2,19,9.5,19c5.2,0,9.5-4.2,9.5-9.5C19,4.3,14.8,0,9.5,0"/>
	</g>
	<polygon class="st1" points="1.9,8.2 1.5,8.2 1.5,10.7 3.1,10.7 3.1,10.3 1.9,10.3 	"/>
	<rect x="3.6" y="8.3" class="st1" width="0.5" height="2.5"/>
	<polygon class="st1" points="4.7,10.7 5.2,10.7 5.2,9.8 6.1,9.8 6.1,9.3 5.2,9.3 5.2,8.7 6.3,8.7 6.3,8.3 4.7,8.3 	"/>
	<polygon class="st1" points="6.8,10.7 8.4,10.7 8.4,10.3 7.3,10.3 7.3,9.7 8.3,9.7 8.3,9.3 7.3,9.3 7.3,8.7 8.4,8.7 8.4,8.3 
		6.8,8.3 	"/>
	<polygon class="st1" points="8.9,8.7 9.7,8.7 9.7,10.7 10.2,10.7 10.2,8.7 11,8.7 11,8.3 8.9,8.3 	"/>
	<rect x="11.5" y="8.3" class="st1" width="0.5" height="2.5"/>
	<polygon class="st1" points="14,10.1 13.3,8.3 12.6,8.3 12.6,10.7 13.1,10.7 13.1,9 13.8,10.7 14.2,10.7 14.9,9 14.9,10.7 
		15.4,10.8 15.4,8.3 14.7,8.3 	"/>
	<polygon class="st1" points="17.5,8.7 17.5,8.3 16,8.3 16,10.8 17.5,10.8 17.5,10.3 16.5,10.3 16.5,9.7 17.4,9.7 17.4,9.3 
		16.5,9.3 16.5,8.7 	"/>
</g>
<g>
	<g id="TM">
		<path class="st1" d="M17.9,10.4h-0.1v-0.1h0.3v0.1H17.9l0.1,0.4h-0.1V10.4z M18.2,10.3L18.2,10.3l0.2,0.3l0.2-0.3h0.1v0.5h-0.1
			v-0.3l-0.2,0.2h0l-0.2-0.2v0.3h-0.1V10.3z"/>
	</g>
	<rect x="17.5" y="10.3" class="st2" width="1.4" height="0.5"/>
</g>
</svg>
