<svg id="Layer_1" data-name="Layer 1" xmlns="http://www.w3.org/2000/svg" viewBox="0 0 495.5 204.05"><defs><style>.cls-1{fill:#58595B;}</style></defs><title>hbo</title><path class="cls-1" d="M529.57,314.57v-2.45h1.53c.83,0,2,.08,2,1.12s-.57,1.33-1.55,1.33Zm0,1.73h1l2.36,4.27h2.59l-2.61-4.45a2.39,2.39,0,0,0,2.46-2.66c0-2.33-1.55-3.08-4.19-3.08h-3.81v10.19h2.18Zm11.07-.8a9.14,9.14,0,0,0-9.49-9.46c-5,0-9.53,3.47-9.53,9.46s4.49,9.46,9.53,9.46A9.15,9.15,0,0,0,540.64,315.5Zm-2.73,0c0,4.35-3.1,7.28-6.76,7.28v0c-3.76,0-6.8-2.9-6.8-7.25s3-7.25,6.8-7.25S537.91,311.14,537.91,315.5Z" transform="translate(-48.21 -303.94)"/><path class="cls-1" d="M193.6,507.06H139.33V429.54H104.11v77.52H48.41l-.2-199.77h55.9v74.3h35.22v-74.3H193.6Zm248.64.94c56,0,101.48-46.52,101.47-102.48,0-57.14-45.52-101.53-101.47-101.57s-84.45,41.1-91.5,57.71c.06-24.93-24.5-54.36-53.24-54.38h-92.6V507l86.33,0c34.81,0,59.57-30.17,59.61-56C358.78,467.27,386.34,508,442.23,508ZM284,426.73c8,0,14.28,7.88,14.28,16.88S292,460.49,284,460.49H256.52V426.73Zm.1-75c8,0,14.28,7.89,14.28,16.88s-6.29,16.88-14.28,16.88H256.62V351.73Zm36.55,53.82c6.29-.79,16.78-8,20.47-12.58-1.3,5.69-1.4,22.17.12,27.86C337,414.34,327,406.36,320.63,405.55Zm70.79,0a50.84,50.84,0,1,1,50.84,50.85A50.84,50.84,0,0,1,391.42,405.55Zm50.84,40a40,40,0,1,0-40-40A40,40,0,0,0,442.26,445.53Z" transform="translate(-48.21 -303.94)"/></svg>