<svg id="Layer_1" data-name="Layer 1" xmlns="http://www.w3.org/2000/svg" viewBox="0 0 874.55 153.9"><defs><style>.cls-1,.cls-2{fill:#ffffff;}.cls-2{font-size:17px;font-family:NexaLight, Nexa;}</style></defs><title>hbonow</title><path class="cls-1" d="M307.1,106.8A30.1,30.1,0,1,0,277,76.7a30.13,30.13,0,0,0,30.1,30.1M268.8,76.6a38.3,38.3,0,1,1,38.3,38.3,38.3,38.3,0,0,1-38.3-38.3m-53.4,0c4.7-.6,12.7-6,15.4-9.5-1,4.3-1.1,16.7.1,21-3.1-4.8-10.7-10.9-15.5-11.5M187.9,36c6,0,10.8,5.9,10.8,12.7S194,61.4,187.9,61.4H167.2V35.9h20.7V36Zm-.1,56.6c6,0,10.8,5.9,10.8,12.7S193.9,118,187.8,118H167.1V92.5l20.7.1Zm119.3,61.3c42.2,0,76.5-35.1,76.5-77.3A76.08,76.08,0,0,0,307.1,0c-42.1,0-63.7,31-69,43.5,0-18.8-18.5-41-40.2-41H128.1V153.1h65.1c26.3,0,44.9-22.7,45-42.2,6,12.3,26.8,43,68.9,43m-187.5-.7H78.7V94.7H52.1v58.5h-42L10,2.5H52.2v56H78.8V2.5h40.9V153.2ZM513,131,422.9,8.5H409.7V147.2h9.7V20.5l92.8,126.7h10.5V8.5H513ZM857.7,8.5l-39,122.6L781.1,9.7l-.4-1.2h-7L736.5,131.1,697.4,9.6l-.3-1.1H686.8l44.1,138.7h10.9L777.3,30.5l35.5,116.7h10.7L867.8,8.5ZM613.6,5.9c-40.2,0-71.7,30.3-71.7,70.7,0,41,30.8,73.1,71.7,73.1s71.7-32.1,71.7-73.1S654.5,5.9,613.6,5.9Zm0,135.7c-35.3,0-61.6-29.1-61.6-64.9s26.3-62.5,61.6-62.5,61.6,26.7,61.6,62.4S648.9,141.6,613.6,141.6Z" transform="translate(-10)"/><text class="cls-2" transform="translate(860.33 21.67)">®</text></svg>