<svg id="9e8177a1-2a99-4ddc-83fb-d55a365a80e3" data-name="Layer 1" xmlns="http://www.w3.org/2000/svg" xmlns:xlink="http://www.w3.org/1999/xlink" viewBox="0 0 94.66 95.2">
  <defs>
    <clipPath id="24341221-f325-4131-876d-1867950ba071">
      <rect x="11.02" y="21.71" width="72.63" height="51.78" fill="none"/>
    </clipPath>
  </defs>
  <title>internet-icon</title>
  <g>
    <g>
      <path d="M47.33,91.25C24.55,91.1,3.95,71.58,3.95,47.6S24.55,4.1,47.33,3.95V0C21.88.15,0,21.44,0,47.6S21.88,95,47.33,95.2Z" fill="#a7a9ac"/>
      <path d="M47.33,3.95a43.65,43.65,0,0,1,0,87.3V95.2A47.23,47.23,0,0,0,94.66,47.6,47.23,47.23,0,0,0,47.33,0Z" fill="#d2d2d4"/>
    </g>
    <g clip-path="url(#24341221-f325-4131-876d-1867950ba071)">
      <path d="M11.18,94-4.2,100.78v12.54A21.89,21.89,0,0,0,11.18,133.9a21.89,21.89,0,0,0,15.37-20.58V100.78Z" fill="#58595b"/>
      <path d="M11.18,94-4.2,100.78v12.54A21.89,21.89,0,0,0,11.18,133.9a21.89,21.89,0,0,0,15.37-20.58V100.78Z" fill="none" stroke="#fff" stroke-miterlimit="10" stroke-width="0.77"/>
      <path d="M75.24,66.31V31.13a1.6,1.6,0,0,0-1.6-1.6H22.11a1.6,1.6,0,0,0-1.6,1.6V66.31Z" fill="#58595b"/>
      <rect x="23.32" y="32.48" width="49.11" height="31.35" fill="#fff"/>
      <path d="M12.11,67.93a.7.7,0,0,0,.29.42s1.34,1.57,2.56,1.57H80.81c1.06,0,2.56-1.57,2.56-1.57a.65.65,0,0,0,.27-.42Z" fill="#a6a8ab"/>
      <path d="M83.64,67.93V66.49a.2.2,0,0,0-.21-.18H12.32a.2.2,0,0,0-.21.18v1.44Z" fill="#58595b"/>
      <rect x="74.41" y="66.72" width="1.66" height="0.8" rx="0.36" ry="0.36" fill="#fff"/>
      <path d="M77.61,67.12a.41.41,0,1,1-.41-.41.41.41,0,0,1,.41.41" fill="#fff"/>
      <polygon points="41.81 32.48 52.38 63.83 72.43 63.83 72.43 32.48 41.81 32.48" fill="#fff"/>
      <g>
        <path d="M35.57,43.66l1.57,1.88c5.92-7.06,15.54-7.06,21.46,0l1.57-1.88c-6.78-8.1-17.82-8.1-24.61,0" fill="#3ec1cd"/>
        <path d="M39,47.73l1.57,1.88a9.22,9.22,0,0,1,14.64,0l1.57-1.88c-4.9-5.85-12.88-5.85-17.78,0" fill="#3ec1cd"/>
        <path d="M42.39,51.8,44,53.68a4.93,4.93,0,0,1,7.82,0l1.57-1.88a6.91,6.91,0,0,0-11,0" fill="#3ec1cd"/>
        <path d="M50.29,56.83a2.42,2.42,0,1,1-2.42-2.42,2.42,2.42,0,0,1,2.42,2.42" fill="#3ec1cd"/>
      </g>
      <rect x="-26.65" y="60.56" width="31.58" height="8.95" rx="0.96" ry="0.96" fill="#58595b"/>
      <path d="M2.12,66.15A1.35,1.35,0,1,1,.77,64.8a1.36,1.36,0,0,1,1.35,1.35" fill="#3ec1cd"/>
      <path d="M-25.27,33l1.84,2.2C-16.5,27-5.22,27,1.71,35.23L3.55,33c-7.94-9.49-20.87-9.49-28.81,0" fill="#3ec1cd"/>
    </g>
  </g>
</svg>
