<svg id="fcb26217-7dc0-474c-b21f-96f3a27060e2" data-name="Layer 1" xmlns="http://www.w3.org/2000/svg" xmlns:xlink="http://www.w3.org/1999/xlink" viewBox="0 0 73.87 74.3">
  <defs>
    <clipPath id="abee0a1d-1856-4921-a5dc-50fdf5f69c67">
      <rect x="24.97" y="7.86" width="23.93" height="57.09" fill="none"/>
    </clipPath>
  </defs>
  <title>phone</title>
  <g>
    <g>
      <path d="M36.94,71.21c-18-.12-33.85-15.35-33.85-34.07S18.94,3.2,36.94,3.08V0A37.45,37.45,0,0,0,0,37.15,37.45,37.45,0,0,0,36.94,74.3Z" fill="#a7a9ac"/>
      <path d="M36.94,3.08c18,.12,33.85,15.35,33.85,34.07S54.94,71.1,36.94,71.21V74.3A37.45,37.45,0,0,0,73.87,37.15,37.45,37.45,0,0,0,36.94,0Z" fill="#d2d2d4"/>
    </g>
    <g clip-path="url(#abee0a1d-1856-4921-a5dc-50fdf5f69c67)">
      <rect x="60.92" y="36.48" width="1.49" height="14.2" fill="#58595b"/>
      <rect x="60.92" y="36.48" width="1.49" height="1.5" fill="#58595b"/>
      <rect x="54.83" y="50.68" width="34.82" height="9.87" rx="1.06" ry="1.06" fill="#58595b"/>
      <rect x="58.13" y="52.89" width="1.72" height="5.45" fill="#fff"/>
      <rect x="62.24" y="52.89" width="1.72" height="5.45" fill="#fff"/>
      <rect x="66.34" y="52.89" width="1.72" height="5.45" fill="#fff"/>
      <path d="M56.36,20.33l2,2.43c7.64-9.12,20.07-9.12,27.71,0l2-2.43c-8.76-10.46-23-10.46-31.77,0" fill="#3ec1cd"/>
      <path d="M60.76,25.59l2,2.42C68,21.8,76.48,21.8,81.69,28l2-2.42c-6.33-7.56-16.63-7.56-23,0" fill="#3ec1cd"/>
      <path d="M65.17,30.84l2,2.43a6.36,6.36,0,0,1,10.09,0l2-2.42a8.92,8.92,0,0,0-14.16,0" fill="#3ec1cd"/>
      <rect x="60.54" y="32.43" width="2.25" height="4.04" rx="0.38" ry="0.38" fill="#58595b"/>
      <path d="M75.37,37.34a3.13,3.13,0,1,1-3.13-3.13,3.13,3.13,0,0,1,3.13,3.13" fill="#3ec1cd"/>
      <rect x="32.14" y="28.45" width="8.58" height="5.76" fill="#fff"/>
      <path d="M46.08,41V58.09A2.92,2.92,0,0,1,43.17,61H29.23a2.92,2.92,0,0,1-2.92-2.92V41a.88.88,0,0,1,.88-.87h2.18V52.75a4.17,4.17,0,0,0,4.17,4.17h5.32A4.17,4.17,0,0,0,43,52.75V40.11h2.18a.88.88,0,0,1,.88.88M30.31,52.75V20.29a3.24,3.24,0,0,1,3.22-3.22h5.32a3.24,3.24,0,0,1,3.22,3.22V52.75A3.23,3.23,0,0,1,38.86,56H33.54a3.23,3.23,0,0,1-3.22-3.22m3.84-2.31a.44.44,0,0,0-.44-.44h-.89a.44.44,0,0,0-.43.44v.45a.44.44,0,0,0,.43.44h.89a.44.44,0,0,0,.44-.44Zm0-2.75a.44.44,0,0,0-.44-.44h-.89a.44.44,0,0,0-.43.44v.45a.43.43,0,0,0,.43.43h.89a.44.44,0,0,0,.44-.43Zm0-2.73a.44.44,0,0,0-.44-.43h-.89a.43.43,0,0,0-.43.43v.45a.44.44,0,0,0,.43.44h.89a.44.44,0,0,0,.44-.44Zm0-2.71a.44.44,0,0,0-.44-.44h-.89a.44.44,0,0,0-.43.44v.45a.44.44,0,0,0,.43.44h.89a.44.44,0,0,0,.44-.44Zm1.7-11.88h.88a.44.44,0,0,0,.44-.44v-.45a.44.44,0,0,0-.44-.44h-.88a.44.44,0,0,0-.44.44v.45a.44.44,0,0,0,.44.44m-1.7-.89a.44.44,0,0,0-.44-.44h-.89a.44.44,0,0,0-.43.44v.45a.44.44,0,0,0,.43.44h.89a.44.44,0,0,0,.44-.44Zm3,21a.44.44,0,0,0-.44-.44h-.88a.44.44,0,0,0-.44.44v.45a.44.44,0,0,0,.44.44h.88a.44.44,0,0,0,.44-.44Zm0-2.75a.44.44,0,0,0-.44-.44h-.88a.44.44,0,0,0-.44.44v.45a.44.44,0,0,0,.44.43h.88a.44.44,0,0,0,.44-.43Zm0-2.73a.44.44,0,0,0-.44-.43h-.88a.44.44,0,0,0-.44.43v.45a.44.44,0,0,0,.44.44h.88a.44.44,0,0,0,.44-.44Zm0-2.71a.44.44,0,0,0-.44-.44h-.88a.44.44,0,0,0-.44.44v.45a.44.44,0,0,0,.44.44h.88a.44.44,0,0,0,.44-.44Zm2.9,8.17a.43.43,0,0,0-.43-.44h-.89a.44.44,0,0,0-.44.44v.45a.44.44,0,0,0,.44.43h.89a.43.43,0,0,0,.43-.43Zm0-2.75a.44.44,0,0,0-.43-.44h-.89a.44.44,0,0,0-.44.44v.45a.44.44,0,0,0,.44.44h.89a.44.44,0,0,0,.43-.44Zm0-2.72a.43.43,0,0,0-.43-.43h-.89a.44.44,0,0,0-.44.43v.45a.44.44,0,0,0,.44.44h.89a.44.44,0,0,0,.43-.44Zm0-2.71a.43.43,0,0,0-.43-.44h-.89a.44.44,0,0,0-.44.44v.45a.44.44,0,0,0,.44.44h.89a.43.43,0,0,0,.43-.44Zm0-12.79a.44.44,0,0,0-.43-.44h-.89a.44.44,0,0,0-.44.44v.45a.44.44,0,0,0,.44.43h.89a.43.43,0,0,0,.43-.43Zm-4.22,3.66h.88a.44.44,0,0,0,.44-.44v-.45a.44.44,0,0,0-.44-.44h-.88a.44.44,0,0,0-.44.44v.45a.44.44,0,0,0,.44.44m-1.7-.89a.44.44,0,0,0-.44-.44h-.89a.44.44,0,0,0-.43.44v.45a.44.44,0,0,0,.43.44h.89a.44.44,0,0,0,.44-.44Zm5.92,0a.44.44,0,0,0-.43-.44h-.89a.44.44,0,0,0-.44.44v.45a.44.44,0,0,0,.44.43h.89a.43.43,0,0,0,.43-.43Zm-7.92-6.11h8.15V20.47H32.14Z" fill="#58595b"/>
      <path d="M32.48,20h-.29a.79.79,0,0,1-.79-.79V12.67a.79.79,0,0,1,.79-.79h.29a.79.79,0,0,1,.79.79v6.57a.79.79,0,0,1-.79.79" fill="#58595b"/>
      <path d="M11.24,57V18.24a1.77,1.77,0,0,0-1.77-1.77H-47.34a1.77,1.77,0,0,0-1.77,1.77V57Z" fill="#58595b"/>
      <rect x="-46.01" y="19.73" width="54.14" height="34.57" fill="#74cdde"/>
      <path d="M-58.37,58.81a.77.77,0,0,0,.31.47S-56.57,61-55.23,61H17.38c1.17,0,2.82-1.73,2.82-1.73a.72.72,0,0,0,.3-.47Z" fill="#a6a8ab"/>
      <path d="M20.5,58.81V57.22a.22.22,0,0,0-.24-.2H-58.13a.22.22,0,0,0-.24.2v1.59Z" fill="#58595b"/>
      <rect x="10.32" y="57.48" width="1.83" height="0.89" rx="0.39" ry="0.39" fill="#fff"/>
      <path d="M13.85,57.92a.45.45,0,1,1-.45-.45.45.45,0,0,1,.45.45" fill="#fff"/>
      <polygon points="-25.62 19.73 -13.97 54.3 8.13 54.3 8.13 19.73 -25.62 19.73" fill="#3ec1cd"/>
    </g>
  </g>
</svg>
