<svg xmlns="http://www.w3.org/2000/svg" viewBox="0 0 69.21 69.61">
  <title>tv-icon</title>
  <g id="919ec5a4-0460-44b8-91bf-a4bb3573ca05" data-name="Layer 2">
    <g id="e489f5e5-d8fe-4070-8200-f36be7a3196e" data-name="desktop">
      <g id="491ab9ed-e37c-4aaf-8e50-7cf9030fde80" data-name="channels CTF">
        <g>
          <g>
            <path d="M34.6,66.72C18,66.61,2.89,52.34,2.89,34.8S18,3,34.6,2.89V0C16,.11,0,15.68,0,34.8S16,69.5,34.6,69.61Z" fill="#a7a9ac"/>
            <path d="M34.6,2.89a31.92,31.92,0,0,1,0,63.83v2.89a34.53,34.53,0,0,0,34.6-34.8A34.53,34.53,0,0,0,34.6,0Z" fill="#d2d2d4"/>
          </g>
          <path d="M41.51,45.65l.8,1.41,1.55.44.48.72H26.52L27,47.5l1.55-.44.8-1.41h-14a.39.39,0,0,1-.39-.39V21a.39.39,0,0,1,.39-.39h39.5a.39.39,0,0,1,.39.39V45.26a.39.39,0,0,1-.39.39Zm-25-1.58H53.8V22.21H16.47V44.07Z" fill="#58595b"/>
        </g>
      </g>
    </g>
  </g>
</svg>
