<svg xmlns="http://www.w3.org/2000/svg" viewBox="0 0 91.17 31.85">
  <title>cinemax-gray</title>
  <g id="7a458931-199e-4479-add8-e9ebc56b2e7e" data-name="Layer 2">
    <g id="b3a55e2f-13eb-4353-a9fc-eb6db81fdcc2" data-name="Offers">
      <g id="dab34366-9fc2-4e7c-abec-ed0a010a1423" data-name="DP offer">
        <g id="1a8cade3-5748-47ea-9864-d7a847165eba" data-name="Sweetener">
          <g id="79a6041b-47f6-4321-b3d3-f4e4c5d793bf" data-name="Cinemax logo">
            <polygon points="83.34 20.3 3.07 27.99 3.07 13.08 83.34 5.39 83.34 20.3" fill="#fff"/>
            <path d="M64.35,12.39,65,15l-2,.24Zm23-12L84.46,21.06,0,31.85,2.91,11.17Zm-10,11.55,4-5.83-4.16.51L75.29,9.49,73.74,7l-3.89.48L73,12.3l-3.6,5.25-2.7-9.64-3.56.44L57.42,19.25l1.47-10.4-4,.48-2.85,4.19L50.33,9.9l-3.55.44L45.22,21.45,48.73,21l.77-5.51,1.91,3.65h.06l3-4.26-.77,5.51L57,20l.29,0,3.63-.44L61.71,18l3.77-.46.36,1.42,2.87-.35,1-.12,3.22-.39,2.19-3.36,1.69,2.88,3.89-.48Zm-37.9,3.42.16-1.13,5.64-.69.44-3L36.49,11.6,34.92,22.71l9.17-1.13.42-3-5.64.69L39.06,18l5.25-.65.37-2.68ZM23,24.17l3.56-.44.79-5.53,3.21,5,3.19-.39,1.57-11.11-3.56.44L31,17.48,28,12.65l-3.36.41Zm.46-11-3.6.44L18.34,24.75l3.6-.44ZM8.24,24.08c-.1,1,.91,1.81,2.26,1.64h0l6.7-.82.46-3.11-4.56.56c-.6.07-1.15-.11-1-.89l.4-2.82c.12-.89.88-1.13,1.67-1.23l4.22-.52.44-3.12-7.42.91a2.35,2.35,0,0,0-2.08,1.76L8.24,24.08Z" fill="#58595b"/>
            <path d="M91.16,1a1.49,1.49,0,0,1-.3,1.11,1.44,1.44,0,0,1-1,.56,1.13,1.13,0,0,1-1.31-1,1.49,1.49,0,0,1,.3-1.11,1.43,1.43,0,0,1,1-.56A1.13,1.13,0,0,1,91.16,1Zm-.43,1a1.34,1.34,0,0,0,.28-1,1,1,0,0,0-1.16-.9A1.25,1.25,0,0,0,89,.64a1.33,1.33,0,0,0-.28,1,1,1,0,0,0,1.16.9A1.26,1.26,0,0,0,90.73,2.07Zm-1.12,0-.43.05.2-1.44.56-.07c.41-.05.61.12.64.37a.5.5,0,0,1-.34.54l.25.44L90,2l-.21-.38-.16,0Zm.3-.77a.31.31,0,0,0,.21-.09.15.15,0,0,0,0-.11c0-.1-.08-.12-.2-.11l-.2,0,0,.31Z" fill="#58595b"/>
          </g>
        </g>
      </g>
    </g>
  </g>
</svg>
