<svg xmlns="http://www.w3.org/2000/svg" xmlns:xlink="http://www.w3.org/1999/xlink" viewBox="0 0 66.73 16.06">
  <defs>
    <clipPath id="aa218850-d13c-48e6-802c-e1ad43c75d3a" transform="translate(0)">
      <rect width="66.73" height="16.06" fill="none"/>
    </clipPath>
  </defs>
  <title>starz_1</title>
  <g id="70b084c0-e1a4-4992-90f8-82277da9dec4" data-name="Layer 2">
    <g id="0425223a-735a-4aa4-bb1f-f07489683ed3" data-name="Offers">
      <g id="5ff1b24d-da0a-47b0-b439-40920a2fa33a" data-name="DP offer">
        <g id="a6bda715-8252-4e38-946d-5fd6459f1206" data-name="Sweetener">
          <g id="de0c269a-51b6-4cee-9c95-ae6a3b77c497" data-name="STARZ Logo">
            <g clip-path="url(#aa218850-d13c-48e6-802c-e1ad43c75d3a)">
              <path d="M66,14.38a.72.72,0,1,1-.7.72.71.71,0,0,1,.7-.72m0,1.31a.59.59,0,1,0-.56-.59.57.57,0,0,0,.56.59m-.24-1h.29a.22.22,0,0,1,.24.23.2.2,0,0,1-.14.2h0l0,0,.14.28h-.16L66,15.18h-.12v.29h-.14Zm.26.35a.11.11,0,0,0,.12-.13.11.11,0,0,0-.12-.12h-.12v.25Z" transform="translate(0)" fill="#58595b"/>
              <path d="M25.36,15.8l1.22-2.42H33.3l1.22,2.42h3.29L29.94.19,22.1,15.8ZM28,10.53l1.92-3.81,1.92,3.81Z" transform="translate(0)" fill="#58595b"/>
              <polygon points="24.88 0.26 12.52 0.26 12.52 3.11 17.12 3.11 17.12 15.8 20.28 15.8 20.28 3.11 24.88 3.11 24.88 0.26" fill="#58595b"/>
              <path d="M49.81,5a4.46,4.46,0,0,0-1.43-3.4,5.78,5.78,0,0,0-4-1.35H38.55V15.8H41.7V10.13H44l3.26,5.66h3.62L47.15,9.37A4.59,4.59,0,0,0,49.81,5M44,7.09H41.7v-4H44c1.69,0,2.63.68,2.63,2s-1,2-2.63,2" transform="translate(0)" fill="#58595b"/>
              <polygon points="65.04 0.26 52.2 0.26 52.2 3.11 59.54 3.11 51.57 15.8 64.87 15.8 64.87 12.95 57.06 12.95 65.04 0.26" fill="#58595b"/>
              <path d="M7,6.6C4.4,6,3.5,5.58,3.5,4.41c0-1,.91-1.6,2.25-1.6a7.53,7.53,0,0,1,4.4,1.84L11.46,2A8.8,8.8,0,0,0,5.79,0C2.61,0,.39,1.91.39,4.63c0,3,1.92,4,5.23,4.79,2.77.64,3.26,1.19,3.26,2.1,0,1.08-1,1.73-2.47,1.73a7.15,7.15,0,0,1-5.1-2.33L0,13.7a9.62,9.62,0,0,0,6.34,2.36c3.43,0,5.65-1.85,5.65-4.8,0-2.43-1.46-3.79-5-4.66" transform="translate(0)" fill="#58595b"/>
            </g>
          </g>
        </g>
      </g>
    </g>
  </g>
</svg>
